<?xml version="1.0" encoding="UTF-8"?>
<svg width="200px" height="200px" viewBox="0 0 200 200" version="1.1" xmlns="http://www.w3.org/2000/svg" xmlns:xlink="http://www.w3.org/1999/xlink">
    <!-- Generator: Sketch 50.2 (55047) - http://www.bohemiancoding.com/sketch -->
    <title>Primary</title>
    <desc>Created with Sketch.</desc>
    <defs></defs>
    <g id="Primary" stroke="none" stroke-width="1" fill="none" fill-rule="evenodd">
        <g id="Seattle-Marina-white" transform="translate(40.000000, 2.000000)" fill-rule="nonzero">
            <path d="M67.4834286,69.6473684 C68.9390528,70.0590548 70.3607653,70.5816471 71.736,71.2105263 L75.2217143,68.9178947 C72.3285714,67.3547368 69.296,65.6873684 66.4377143,63.8463158 C66.856,66 67.2045714,67.9105263 67.4834286,69.6473684 Z" id="Shape" fill="#005C5C"></path>
            <polygon id="Shape" fill="#005C5C" points="49.4622857 114.874737 49.4622857 114.874737 49.4274286 114.874737"></polygon>
            <path d="M106.349143,96.8463158 L101.399429,97.7147368 L101.085714,97.7147368 C105.700919,106.490246 107.992464,116.294336 107.743429,126.198947 C107.743429,161.144211 84.9817143,185.842105 58.6297143,185.842105 C41.724,185.842105 35.136,179.242105 31.0577143,177.956842 L12.8971429,184.556842 L12.8971429,127.241053 C17.4497262,128.319489 21.2158103,131.492202 23.0405714,135.786316 C31.1274286,151.904211 40.4691429,165.590526 57.8977143,165.590526 C68.1108571,165.590526 74.908,156.176842 74.908,142.803158 C74.7673524,135.808028 71.7715451,129.172261 66.612,124.427368 L66.612,125.261053 C66.1937143,127.657895 65.8451429,129.950526 65.5662857,131.583158 C68.1646789,135.104209 69.6128798,139.336795 69.7142857,143.706316 C69.7142857,148.673684 68.4245714,160.241053 56.4685714,160.241053 C40.0857143,160.241053 30.8485714,139.642105 26.8748571,130.818947 C23.4372944,124.552082 17.2879074,120.218778 10.2131429,119.077895 L7.59885714,118.765263 L7.59885714,192.303158 L30.5348571,184.105263 L31.6154286,184.556842 C39.7607628,188.598632 48.6405133,190.961544 57.7234286,191.504211 C85.0165714,191.504211 113.285714,167.188421 113.285714,126.963158 C113.48431,116.509494 111.102285,106.167343 106.349143,96.8463158 Z" id="Shape" fill="#005C5C"></path>
            <path d="M84.668,74.0936842 C84.2845714,74.9273684 83.8662857,75.8305263 83.448,76.8031579 C83.448,76.8031579 83.1342857,77.4284211 82.716,78.4010526 C82.6972198,78.4927389 82.6972198,78.5872611 82.716,78.6789474 C87.3594972,81.5328768 91.5629037,85.0431277 95.1948571,89.1 L95.4388571,89.1 L102.410286,90.2810526 C97.6371732,83.7614234 91.6050035,78.2579074 84.668,74.0936842 Z" id="Shape" fill="#005C5C"></path>
            <path d="M82.3325714,8.89263158 C74.8444231,3.30380742 65.7871194,0.193891607 56.4337143,0 C36.4954286,0 6.97142857,18.2368421 6.97142857,57.3852632 C6.5320858,69.1764167 9.6789985,80.8246095 15.9994286,90.8021053 L21.0537143,89.9684211 L21.7508571,89.9684211 C15.9994286,81.9789474 12.3394286,71.4884211 12.3394286,56.2736842 C12.3394286,26.9557895 35.9028571,5.03684211 56.7474286,5.03684211 C65.3222857,5.03684211 75.7445714,10.7684211 81.3914286,15.2147368 C84.7725714,13.8947368 96.9028571,8.99684211 96.9028571,8.99684211 L96.9028571,61.1021053 C92.9969921,60.0998561 89.6049811,57.685353 87.3868571,54.3284211 C79.4394286,40.8157895 74.4897143,25.6010526 61.1742857,25.6010526 C50.9262857,25.6010526 46.0462857,32.9305263 46.0462857,42.9694737 C46.3925956,50.4417594 49.9325657,57.4087551 55.7714286,62.1094737 C55.7714286,62.1094737 55.7714286,61.8315789 55.7714286,61.6578947 C56.12,59.4694737 56.4337143,57.4547368 56.6777143,55.9957895 C53.2960334,52.7390081 51.2993934,48.3118164 51.1005714,43.6294737 C51.1005714,39.8431579 51.972,31.0894737 60.1982857,31.0894737 C69.1565714,31.0894737 73.6531429,39.4610526 75.5354286,44.4631579 C78.1394735,51.1402394 82.185563,57.1647091 87.3868571,62.1094737 L90.6285714,60.2684211 L89.1994286,63.4294737 C92.1865945,65.8778954 95.8158321,67.4210259 99.6565714,67.8757895 L102.236,68.1536842 L102.236,1.49368421 L82.3325714,8.89263158 Z" id="Shape" fill="#005C5C"></path>
            <polygon id="Shape" fill="#C4CED4" points="49.2531429 72.6694737 49.2531429 72.7042105 49.2531429 72.6694737"></polygon>
            <polygon id="Shape" fill="#C4CED4" points="70.6902857 115.673684 70.6902857 115.673684 70.6554286 115.673684"></polygon>
            <path d="M78.324,142.976842 C78.324,160.518947 68.6685714,169.515789 58.316,169.515789 C28.304,169.515789 21.6462857,136.689474 16.4874286,133.563158 L16.4874286,179.311579 C21.2591627,177.750053 25.8886763,175.786104 30.3257143,173.441053 C34.4737143,173.441053 42.4908571,182.437895 57.4794286,182.437895 C80.1714286,182.437895 104.153143,160.275789 104.153143,126.858947 C104.525067,116.816851 101.95751,106.883801 96.7634286,98.2705263 L85.0514286,100.146316 C84.3568657,102.616168 83.2745316,104.960947 81.8445714,107.093684 L82.472,108.483158 C83.0994286,109.872632 90.524,127.866316 90.524,127.866316 L71.5965714,116.021053 C70.2890608,116.658731 68.9234342,117.170527 67.5182857,117.549474 C67.5182857,118.313684 67.2742857,119.182105 67.1348571,120.050526 C74.3696392,125.436324 78.5393907,133.980056 78.324,142.976842 Z" id="Shape" fill="#C4CED4"></path>
            <polygon id="Shape" fill="#C4CED4" points="80.276 108.031579 80.276 107.996842 80.276 108.031579"></polygon>
            <path d="M36.7394286,100.215789 L36.5302857,100.215789 L36.7742857,100.424211 C36.7577442,100.355644 36.746096,100.285996 36.7394286,100.215789 Z" id="Shape" fill="#C4CED4"></path>
            <path d="M38.9354286,77.8105263 C36.2011521,72.073961 33.8716905,66.1543348 31.964,60.0947368 L49.9851429,71.2105263 C51.4475272,70.4863117 52.9767332,69.9046596 54.5514286,69.4736842 C54.5514286,68.6052632 54.8651429,67.7021053 55.0045714,66.7294737 C47.0048081,61.5481306 42.2184946,52.6506289 42.3165714,43.1431579 C42.3165714,29.7347368 50.4731429,21.6757895 59.5011429,21.6757895 C81.1474286,21.6757895 83.9011429,48.3536842 93.1731429,55.1273684 L93.1731429,14.3810526 C89.6874286,15.8052632 81.8445714,19.2442105 81.8445714,19.2442105 C79.8228571,19.2442105 77.1737143,16.6736842 73.2,13.8947368 C68.3519895,10.6528926 62.6552734,8.90146059 56.8171429,8.85789474 C37.6457143,8.85789474 15.9297143,27.9978947 15.9297143,56.3778947 C15.4380982,68.091217 18.8313815,79.6398354 25.5851429,89.2389474 L36.6697143,87.4673684 C37.3397935,84.8360712 38.447299,82.3351718 39.9462857,80.0684211 L38.9354286,77.8105263 Z" id="Shape" fill="#C4CED4"></path>
            <path d="M85.1211429,87.3978947 L87.4565714,87.78 C86.4805714,86.9463158 85.5045714,86.1473684 84.4937143,85.3831579 C84.7394009,86.042889 84.9488538,86.7154637 85.1211429,87.3978947 Z" id="Shape" fill="#C4CED4"></path>
            <polygon id="Shape" fill="#C4CED4" points="44.9308571 75.7263158 43.9548571 76.6294737 45.0354286 75.6221053"></polygon>
            <polygon id="Shape" fill="#0C2C56" points="97.844 185.633684 101.120571 185.633684 101.120571 194.561053 103.351429 194.561053 103.351429 185.633684 106.662857 185.633684 106.662857 183.723158 97.844 183.723158"></polygon>
            <polygon id="Shape" fill="#0C2C56" points="115.098286 190.809474 115.028571 190.809474 112.484 183.723158 108.649714 183.723158 108.649714 194.561053 110.845714 194.561053 110.845714 185.911579 110.915429 185.911579 113.948 194.561053 116.109143 194.561053 119.281143 185.911579 119.316 185.911579 119.316 194.561053 121.546857 194.561053 121.546857 183.723158 117.712571 183.723158"></polygon>
            <path d="M54.2725714,82.5694737 L53.8542857,82.8126316 C53.6189435,82.7784145 53.393366,82.6955938 53.192,82.5694737 C53.192,82.5694737 53.192,82.5694737 53.192,82.5694737 L54.4817143,81.7010526 C54.7257143,80.2073684 54.9697143,78.4357895 55.2834286,76.5252632 C55.5971429,74.6147368 55.9108571,72.4610526 56.2594286,70.2378947 L54.4817143,70.6547368 C53.293278,70.994118 52.1288042,71.4118818 50.996,71.9052632 C50.3685714,72.1831579 49.776,72.4610526 49.2182857,72.7736842 L48.2771429,73.3294737 L47.4057143,73.8852632 L46.6388571,74.4410526 L46.4645714,74.4410526 L45.5931429,75.1357895 L45.9417143,75.5178947 C45.9417143,75.5178947 45.4885714,77.1505263 45.2794286,77.1852632 L45.0005714,76.9073684 L43.2577143,77.3936842 C42.9836155,77.6786579 42.7275054,77.9802889 42.4908571,78.2968421 C42.2393408,78.5827333 42.006482,78.884405 41.7937143,79.2 C41.3708168,79.7276978 40.986404,80.2849139 40.6434286,80.8673684 C40.3645714,81.2842105 40.1205714,81.7357895 39.8765714,82.1873684 C39.8651284,82.26802 39.8651284,82.3498748 39.8765714,82.4305263 C39.6325714,82.8821053 39.4234286,83.3684211 39.1794286,83.8547368 L38.552,85.4178947 C38.3462121,85.9515826 38.1716337,86.496707 38.0291429,87.0505263 C37.8567689,87.6328428 37.7171234,88.2242878 37.6108571,88.8221053 L45.3142857,87.8147368 C49.4971429,87.1547368 52.704,86.7031579 53.7497143,86.5989474 C53.734818,86.4139816 53.734818,86.2281237 53.7497143,86.0431579 C53.8891429,85.3136842 54.0634286,84.0978947 54.2725714,82.5694737 Z M44.3382857,78.7484211 C44.3382857,78.7484211 43.8154286,78.4705263 43.8502857,78.2273684 C43.8851429,77.9842105 45.7674286,77.6368421 45.872,77.6715789 L46.2902857,77.9147368 L46.7085714,76.4210526 C46.9029083,76.5329949 47.079179,76.6735249 47.2314286,76.8378947 C47.0891453,77.4387068 46.8786454,78.0214107 46.604,78.5747368 L46.1508571,78.2968421 L44.3382857,78.7484211 Z M45.7674286,79.4778947 C45.7674286,79.4778947 47.6497143,78.7831579 47.7542857,78.7831579 L48.2074286,79.0263158 L48.4514286,77.4978947 C48.4514286,77.4978947 48.9742857,77.7410526 49.044,77.88 C48.9670248,78.486924 48.8148155,79.0819919 48.5908571,79.6515789 L48.1028571,79.4084211 C48.1028571,79.4084211 46.2554286,80.0684211 46.1508571,80.0684211 C46.0462857,80.0684211 45.7674286,79.6863158 45.7674286,79.4778947 Z M47.9982857,80.6242105 L49.9154286,79.86 L50.4034286,80.0336842 L50.4034286,78.5052632 C50.6259242,78.5952865 50.8366126,78.7119317 51.0308571,78.8526316 C50.9984905,79.462488 50.9050744,80.0675973 50.752,80.6589474 L50.2291429,80.4157895 L48.3468571,81.18 C48.3468571,81.18 47.9982857,80.8326316 47.9982857,80.6242105 Z M51.0308571,82.0484211 C50.8046857,82.0000101 50.5910451,81.9053865 50.4034286,81.7705263 C50.4034286,81.7705263 52.0417143,80.7978947 52.1462857,80.7978947 L52.6691429,80.7978947 L52.2857143,79.3042105 L52.46,79.3042105 C52.702172,79.3540998 52.9366089,79.4358695 53.1571429,79.5473684 C53.2280216,80.1590202 53.2280216,80.7767693 53.1571429,81.3884211 L52.5645714,81.3884211 C52.5645714,81.3884211 51.1005714,82.0484211 51.0308571,82.0484211 Z" id="Shape" fill="#FFFFFF"></path>
            <polygon id="Shape" fill="#FFFFFF" points="44.7217143 76.7336842 45.0354286 75.6221053 43.9548571 76.6294737 44.408 76.6294737"></polygon>
            <path d="M37.2622857,98.6178947 C37.2622857,99.2084211 37.5411429,99.7989474 37.7154286,100.389474 C38.3549803,102.574489 39.3058108,104.656757 40.5388571,106.572632 C40.8901607,107.149765 41.2742131,107.706459 41.6891429,108.24 L42.5257143,109.282105 C42.8199016,109.646506 43.1340961,109.994406 43.4668571,110.324211 C43.4533006,110.208815 43.4533006,110.092238 43.4668571,109.976842 C43.4668571,109.976842 43.8851429,109.629474 44.0594286,109.664211 C44.258252,110.149644 44.4213497,110.648858 44.5474286,111.157895 L45.1051429,111.644211 L46.1508571,112.026316 L46.9874286,112.686316 L47.7542857,113.207368 L48.6257143,113.763158 L49.532,114.284211 L51.3097143,115.152632 C52.3101879,115.610449 53.3480506,115.982326 54.412,116.264211 L56.1897143,116.715789 C55.8411429,114.562105 55.5274286,112.547368 55.2485714,110.636842 C55.0742857,109.490526 54.9,108.344211 54.7257143,107.163158 C54.5997861,107.194064 54.4682139,107.194064 54.3422857,107.163158 C53.845783,106.770252 53.3797012,106.340614 52.948,105.877895 C52.948,105.877895 52.948,105.877895 52.948,105.877895 L53.5405714,105.877895 C53.596931,105.373902 53.690131,104.874681 53.8194286,104.384211 L54.3422857,104.384211 C54.3422857,103.376842 54.0634286,102.543158 53.9937143,101.883158 C53.9937143,101.362105 53.9937143,100.98 53.9937143,100.702105 C52.948,100.702105 49.8108571,100.146316 45.6628571,99.5210526 L37.2622857,98.6178947 Z M46.0811429,110.011579 L45.7674286,110.254737 L47.58,110.949474 C47.427649,111.079019 47.2643783,111.195238 47.092,111.296842 C46.4833046,111.067695 45.8895757,110.800859 45.3142857,110.497895 L45.6628571,110.22 C45.473335,109.758283 45.3217883,109.281978 45.2097143,108.795789 C45.2097143,108.795789 45.628,108.448421 45.8022857,108.483158 C45.9765714,108.517895 46.0811429,109.872632 46.0811429,110.011579 Z M50.8217143,107.267368 C50.8954163,106.763528 51.0001861,106.264689 51.1354286,105.773684 C51.1354286,105.773684 51.728,105.530526 51.9022857,105.773684 C51.8244394,106.288245 51.7197259,106.798411 51.5885714,107.302105 L51.1702857,107.475789 L52.8434286,108.552632 L52.6342857,108.552632 L51.972,108.761053 C51.4199057,108.407492 50.8955419,108.012673 50.4034286,107.58 C50.4034286,107.58 50.4034286,107.58 50.4034286,107.58 L50.8217143,107.267368 Z M48.8,106.642105 C48.8,106.642105 49.3228571,106.364211 49.4971429,106.468421 C49.6714286,106.572632 49.4971429,107.927368 49.4971429,108.031579 L49.1137143,108.031579 L50.8914286,109.038947 L50.6822857,109.038947 C50.482343,109.150967 50.272276,109.244008 50.0548571,109.316842 C49.4864513,108.992796 48.9392562,108.633126 48.4165714,108.24 L48.8697143,108.031579 C48.8148105,107.570539 48.7915183,107.106304 48.8,106.642105 Z M47.58,107.406316 C47.6175413,107.915103 47.6175413,108.42595 47.58,108.934737 L47.2662857,109.108421 L49.044,110.011579 L48.8697143,110.011579 C48.6888421,110.1445 48.489132,110.249864 48.2771429,110.324211 C47.6845199,110.02928 47.1137409,109.692638 46.5691429,109.316842 C46.5691429,109.316842 46.5691429,109.316842 46.5691429,109.316842 L46.9525714,109.108421 C46.9215854,108.611005 46.9215854,108.112153 46.9525714,107.614737 C46.9525714,107.614737 47.5102857,107.302105 47.7194286,107.406316 L47.58,107.406316 Z" id="Shape" fill="#FFFFFF"></path>
            <path d="M53.7497143,106.537895 L54.5862857,107.232632 C54.5862857,106.746316 54.5862857,106.26 54.3771429,105.843158 C54.3904387,106.028184 54.3904387,106.213921 54.3771429,106.398947 L53.7497143,106.537895 Z" id="Shape" fill="#FFFFFF"></path>
            <path d="M68.3548571,101.084211 C68.3548571,101.084211 68.3548571,101.466316 68.3548571,101.744211 L67.8668571,105.009474 L68.1805714,104.835789 C68.4011759,104.883683 68.6128867,104.965731 68.808,105.078947 C68.808,105.078947 68.808,105.078947 68.808,105.078947 L67.6228571,105.877895 C67.4137143,107.406316 67.1348571,109.351579 66.8211429,111.157895 C66.5074286,112.964211 66.1937143,115.048421 65.88,117.132632 L67.6577143,116.681053 C68.6826597,116.383401 69.6845378,116.011896 70.6554286,115.569474 C71.248,115.291579 71.8754286,115.013684 72.4331429,114.701053 L73.444,114.110526 L74.3502857,113.554737 C74.6310239,113.389604 74.899006,113.203825 75.152,112.998947 L75.3262857,112.998947 L76.1977143,112.304211 C76.3404808,111.714686 76.5510153,111.143542 76.8251429,110.602105 L77.1388571,110.914737 L78.3588571,110.532632 L79.3,109.525263 L80.1365714,108.483158 L81.252,106.815789 C81.8311829,105.904233 82.3437464,104.952298 82.7857143,103.967368 C82.9948571,103.515789 83.204,103.029474 83.3782857,102.577895 C83.5525714,102.056842 83.7268571,101.570526 83.8662857,101.049474 C84.0057143,100.528421 84.18,99.8684211 84.3194286,99.2778947 L76.6857143,99.9031579 C72.5377143,100.528421 69.4354286,100.98 68.3548571,101.084211 Z M69.7142857,108.517895 L69.3657143,108.517895 C69.121126,108.459175 68.8863239,108.365578 68.6685714,108.24 C68.5961138,107.62844 68.5961138,107.010508 68.6685714,106.398947 C68.8727341,106.448022 69.0712996,106.517862 69.2611429,106.607368 L71.004,105.634737 C71.2300938,105.701038 71.4425473,105.806899 71.6314286,105.947368 L69.8885714,106.92 L69.3308571,106.746316 L69.7142857,108.517895 Z M72.1891429,107.823158 L71.5268571,107.684211 L71.5268571,109.386316 C71.5268571,109.386316 70.9691429,109.177895 70.8994286,109.038947 C70.9273653,108.426091 71.0327688,107.819195 71.2131429,107.232632 L71.736,107.510526 L73.6182857,106.711579 C73.6182857,106.711579 74.2108571,106.954737 74.2108571,107.197895 C74.2108571,107.441053 72.1194286,107.684211 72.0148571,107.684211 L72.1891429,107.823158 Z M74.3851429,108.865263 L73.932,108.656842 L73.6531429,110.358947 C73.4423894,110.253213 73.2437132,110.125102 73.0605714,109.976842 C73.1410824,109.359312 73.2931447,108.753162 73.5137143,108.170526 L73.9668571,108.448421 C73.9668571,108.448421 75.8491429,107.753684 75.9188571,107.788421 C76.1117699,107.873605 76.2886133,107.991094 76.4417143,108.135789 C76.4417143,108.135789 76.4417143,108.135789 76.4417143,108.135789 L74.3851429,108.865263 Z M78.2891429,109.421053 L76.2674286,110.011579 L75.8491429,109.768421 L75.396,111.435789 C75.396,111.435789 74.908,111.157895 74.8731429,111.018947 C75.0149226,110.406831 75.2253904,109.812564 75.5005714,109.247368 L75.9188571,109.56 L77.9405714,108.969474 C77.9405714,108.969474 78.1148571,109.212632 78.1148571,109.421053 L78.2891429,109.421053 Z" id="Shape" fill="#FFFFFF"></path>
            <polygon id="Shape" fill="#FFFFFF" points="77.0691429 111.54 77.5222857 111.123158 77.2434286 110.914737"></polygon>
            <path d="M66.8211429,76.4210526 C66.8211429,77.6021053 67.1697143,78.7136842 67.3091429,79.8947368 L67.6577143,79.8947368 C68.1462774,80.2967815 68.6117738,80.7258796 69.052,81.18 L68.4594286,81.18 C68.4027115,81.686696 68.2976651,82.186852 68.1457143,82.6736842 L67.7274286,82.6736842 C67.7274286,83.6810526 67.9714286,84.5147368 68.076,85.2094737 C68.1805714,85.9042105 68.076,86.1473684 68.076,86.4252632 C69.1217143,86.4252632 72.224,86.9810526 76.3022857,87.6063158 C78.7074286,87.9536842 81.4611429,88.3705263 84.3542857,88.8568421 L84.1451429,87.9189474 C84.0800681,87.6251796 83.9986084,87.335256 83.9011429,87.0505263 C83.3110815,84.9037867 82.4066936,82.8554536 81.2171429,80.9715789 C80.8685714,80.4157895 80.4851429,79.86 80.1017143,79.3042105 C79.8305305,78.9301744 79.5396464,78.570723 79.2302857,78.2273684 L79.2302857,78.0536842 L78.2891429,77.0115789 C78.2891429,77.22 78.2891429,77.3589474 78.2891429,77.4284211 C78.2891429,77.4978947 77.9057143,77.7757895 77.6965714,77.7063158 C77.4874286,77.6368421 77.3828571,76.4210526 77.3828571,76.4210526 L76.9645714,76.0389474 L75.7445714,75.5526316 L75.9537143,75.5526316 L75.0822857,74.8926316 L74.3154286,74.3021053 C73.7324471,73.887671 73.1273705,73.5050054 72.5028571,73.1557895 C71.9102857,72.8431579 71.3177143,72.5305263 70.6902857,72.2526316 C69.6628187,71.7929658 68.602582,71.4098113 67.5182857,71.1063158 C66.9345053,70.9233009 66.3410307,70.7725451 65.7405714,70.6547368 C66.2285714,72.3568421 66.5074286,74.4757895 66.8211429,76.4210526 Z M71.1434286,80.4157895 C71.0659611,80.9304171 70.9612435,81.4406029 70.8297143,81.9442105 C70.8297143,81.9442105 70.2371429,82.1526316 70.0628571,81.9442105 C69.8885714,81.7357895 70.3068571,80.4852632 70.3765714,80.3810526 L70.76,80.3810526 L69.0868571,79.2694737 L69.296,79.2694737 C69.5162278,79.1646471 69.7513804,79.0943447 69.9931429,79.0610526 C70.5317764,79.4053335 71.0443855,79.7884635 71.5268571,80.2073684 C71.405027,80.277566 71.2766078,80.3357369 71.1434286,80.3810526 L71.1434286,80.4157895 Z M73.0257143,81.0410526 C73.0257143,81.0410526 72.468,81.3189474 72.3285714,81.2147368 C72.2936013,80.7058591 72.2936013,80.1951935 72.3285714,79.6863158 L72.6771429,79.5126316 L70.9342857,78.5052632 L71.1434286,78.5052632 C71.345225,78.4065154 71.5551343,78.3251658 71.7708571,78.2621053 C72.3443244,78.5778806 72.8920945,78.9379288 73.4091429,79.3389474 C73.4091429,79.3389474 73.4091429,79.3389474 73.4091429,79.3389474 L72.956,79.5126316 C73.0753236,80.0036198 73.1568935,80.5029629 73.2,81.0063158 L73.0257143,81.0410526 Z M74.9428571,80.1031579 C74.9428571,80.1031579 74.42,80.3810526 74.2457143,80.3115789 C74.2074047,79.8028205 74.2074047,79.2919164 74.2457143,78.7831579 L74.5942857,78.5747368 L72.7817143,77.6715789 L72.9908571,77.6715789 C73.1656044,77.5582032 73.3527084,77.4649741 73.5485714,77.3936842 C74.153668,77.6861624 74.7362117,78.0228717 75.2914286,78.4010526 L74.8731429,78.6094737 C74.92389,79.0940963 74.9471651,79.5811858 74.9428571,80.0684211 L74.9428571,80.1031579 Z M76.7902857,77.0810526 C76.7902857,77.0810526 76.7902857,77.0810526 76.7902857,77.0810526 L76.4417143,77.3589474 C76.6408215,77.8171473 76.7926504,78.2943395 76.8948571,78.7831579 C76.8948571,78.7831579 76.4765714,79.1305263 76.3022857,79.0610526 C76.1037841,78.5873781 75.9406734,78.0997348 75.8142857,77.6021053 L76.0931429,77.3242105 L74.2805714,76.6294737 C74.2805714,76.6294737 74.664,76.3168421 74.8034286,76.3168421 C75.4492626,76.5099107 76.0786737,76.7538369 76.6857143,77.0463158 L76.7902857,77.0810526 Z" id="Shape" fill="#FFFFFF"></path>
            <path d="M68.2154286,81.1452632 L67.4485714,80.4852632 C67.4485714,80.9021053 67.4485714,81.2842105 67.4485714,81.6663158 C67.4269924,81.5282005 67.4269924,81.387589 67.4485714,81.2494737 L68.2154286,81.1452632 Z" id="Shape" fill="#FFFFFF"></path>
            <path d="M76.86,110.289474 C76.5858725,110.83091 76.3753379,111.402054 76.2325714,111.991579 L76.4068571,111.991579 L76.616,111.817895 L76.86,111.609474 L77.0342857,110.984211 L77.3131429,111.192632 L77.5571429,110.949474 L77.8708571,110.636842 L78.1845714,110.289474 L76.9645714,110.671579 L76.86,110.289474 Z" id="Shape" fill="#D50032"></path>
            <path d="M75.1868571,109.177895 C74.9116761,109.74309 74.7012083,110.337358 74.5594286,110.949474 C74.5594286,110.949474 75.0822857,111.366316 75.0822857,111.366316 L75.5354286,109.698947 L75.9537143,109.942105 L77.9754286,109.351579 C77.9754286,109.143158 77.4874286,108.830526 77.4874286,108.830526 L75.4657143,109.421053 L75.1868571,109.177895 Z" id="Shape" fill="#D50032"></path>
            <path d="M76.128,108.066316 C75.974899,107.92162 75.7980556,107.804131 75.6051429,107.718947 C75.6051429,107.718947 73.7577143,108.344211 73.6531429,108.378947 L73.2,108.101053 C72.9794304,108.683689 72.8273681,109.289838 72.7468571,109.907368 C72.929999,110.055628 73.1286751,110.183739 73.3394286,110.289474 L73.6182857,108.587368 L74.0714286,108.795789 L76.0234286,108.135789 C76.0234286,108.135789 76.1628571,108.101053 76.128,108.066316 Z" id="Shape" fill="#D50032"></path>
            <path d="M73.2,106.572632 L71.3177143,107.371579 L70.7948571,107.093684 C70.614483,107.680248 70.5090795,108.287144 70.4811429,108.9 C70.4811429,108.9 71.1085714,109.247368 71.1085714,109.247368 L71.1085714,107.545263 L71.5965714,107.753684 C71.5965714,107.753684 73.5137143,106.989474 73.5137143,106.989474 C73.5137143,106.989474 73.2,106.572632 73.2,106.572632 Z" id="Shape" fill="#D50032"></path>
            <path d="M71.6314286,106.016842 C71.4425473,105.876372 71.2300938,105.770512 71.004,105.704211 L69.2611429,106.676842 C69.0712996,106.587336 68.8727341,106.517496 68.6685714,106.468421 C68.5961138,107.079981 68.5961138,107.697914 68.6685714,108.309474 C68.8863239,108.435052 69.121126,108.528648 69.3657143,108.587368 L69.7142857,108.587368 L69.5051429,106.885263 L70.0628571,107.058947 L71.6314286,106.016842 Z" id="Shape" fill="#D50032"></path>
            <path d="M68.7382857,105.113684 C68.5431724,105.000468 68.3314616,104.91842 68.1108571,104.870526 L67.7971429,105.044211 C67.7971429,105.356842 67.7971429,105.669474 67.7971429,106.016842 L68.9822857,105.217895 C68.9822857,105.217895 68.808,105.113684 68.7382857,105.113684 Z" id="Shape" fill="#D50032"></path>
            <path d="M53.436,106.398947 L52.8434286,106.398947 C52.8434286,106.398947 52.8434286,106.398947 52.8434286,106.398947 C53.2751297,106.861667 53.7412116,107.291305 54.2377143,107.684211 C54.3636425,107.715117 54.4952147,107.715117 54.6211429,107.684211 L54.6211429,106.989474 L53.7845714,106.294737 L54.2725714,106.294737 C54.2858673,106.109711 54.2858673,105.923974 54.2725714,105.738947 C54.2725714,105.391579 54.2725714,105.044211 54.2725714,104.696842 L53.7497143,104.696842 C53.5979686,105.254561 53.4930355,105.823892 53.436,106.398947 Z" id="Shape" fill="#D50032"></path>
            <path d="M50.3685714,107.684211 C50.8606847,108.116884 51.3850486,108.511702 51.9371429,108.865263 L52.5994286,108.656842 L52.8085714,108.656842 L51.1354286,107.58 L51.5537143,107.406316 C51.6848687,106.902621 51.7895823,106.392455 51.8674286,105.877895 C51.6931429,105.877895 51.1005714,105.877895 51.1005714,105.877895 C50.9653289,106.368899 50.8605592,106.867738 50.7868571,107.371579 L50.2988571,107.545263 C50.2988571,107.545263 50.2988571,107.545263 50.2988571,107.545263 L50.3685714,107.684211 Z" id="Shape" fill="#D50032"></path>
            <path d="M48.4514286,108.344211 C48.9741134,108.737336 49.5213085,109.097007 50.0897143,109.421053 C50.3071332,109.348219 50.5172001,109.255178 50.7171429,109.143158 L50.9262857,109.143158 L49.1485714,108.135789 L49.532,108.135789 C49.532,108.135789 49.532,106.572632 49.532,106.572632 C49.532,106.572632 48.8348571,106.746316 48.8348571,106.746316 C48.7982714,107.243543 48.7982714,107.742773 48.8348571,108.24 L48.4514286,108.344211 Z" id="Shape" fill="#D50032"></path>
            <path d="M47.0222857,107.684211 C46.9912997,108.181626 46.9912997,108.680479 47.0222857,109.177895 L46.6388571,109.386316 C46.6388571,109.386316 46.6388571,109.386316 46.6388571,109.386316 C47.1834552,109.762112 47.7542342,110.098754 48.3468571,110.393684 C48.5588463,110.319337 48.7585564,110.213973 48.9394286,110.081053 L49.1137143,110.081053 L47.336,109.177895 L47.6497143,109.004211 C47.6872556,108.495424 47.6872556,107.984576 47.6497143,107.475789 C47.5102857,107.302105 47.0222857,107.684211 47.0222857,107.684211 Z" id="Shape" fill="#D50032"></path>
            <path d="M45.0005714,108.830526 C45.1126454,109.316715 45.2641921,109.79302 45.4537143,110.254737 L45.1051429,110.532632 C45.6804329,110.835596 46.2741617,111.102432 46.8828571,111.331579 C47.0552354,111.229975 47.2185062,111.113756 47.3708571,110.984211 L45.5582857,110.289474 L45.872,110.046316 C45.872,110.046316 45.384,108.552632 45.384,108.552632 C45.384,108.552632 45.0005714,108.830526 45.0005714,108.830526 Z" id="Shape" fill="#D50032"></path>
            <path d="M44.0594286,109.768421 C43.8851429,109.768421 43.4668571,110.081053 43.4668571,110.081053 C43.4533006,110.196448 43.4533006,110.313026 43.4668571,110.428421 L43.8154286,110.775789 L44.2337143,111.192632 C44.2073521,110.714571 44.1491285,110.238785 44.0594286,109.768421 Z" id="Shape" fill="#D50032"></path>
            <polygon id="Shape" fill="#D50032" points="46.0811429 112.2 45.0354286 111.817895 45.2794286 112.026316 45.5582857 112.269474 45.5582857 112.269474 45.7674286 112.269474 45.7674286 112.269474"></polygon>
            <path d="M45.0702857,77.3589474 C45.2794286,77.3589474 45.7325714,75.6915789 45.7325714,75.6915789 L45.384,75.3094737 L45.0354286,75.6221053 L44.7217143,76.7336842 L44.408,76.4210526 L43.9548571,76.4210526 L43.6411429,76.7336842 L43.3274286,77.0463158 L43.0485714,77.3589474 L44.7914286,76.8726316 L45.0702857,77.3589474 Z" id="Shape" fill="#D50032"></path>
            <path d="M46.7782857,78.4705263 C47.0529311,77.9172002 47.263431,77.3344962 47.4057143,76.7336842 C47.2534648,76.5693143 47.077194,76.4287844 46.8828571,76.3168421 L46.4645714,77.8452632 L46.0462857,77.6021053 C46.0462857,77.6021053 44.0245714,78.1578947 44.0245714,78.1578947 C44.0245714,78.1578947 44.5125714,78.6789474 44.5125714,78.6789474 L46.4994286,78.1231579 L46.7782857,78.4705263 Z" id="Shape" fill="#D50032"></path>
            <path d="M48.8,79.5473684 C49.0239584,78.9777814 49.1761677,78.3827135 49.2531429,77.7757895 C49.2531429,77.7757895 48.6605714,77.3936842 48.6605714,77.3936842 L48.4165714,78.9221053 L47.9634286,78.6789474 C47.9634286,78.6789474 45.9765714,79.3736842 45.9765714,79.3736842 C45.9765714,79.3736842 46.5342857,79.86 46.5342857,79.86 C46.5342857,79.86 48.4165714,79.2 48.4862857,79.2 L48.8,79.5473684 Z" id="Shape" fill="#D50032"></path>
            <path d="M51.0308571,80.5547368 C51.1839315,79.9633868 51.2773476,79.3582775 51.3097143,78.7484211 C51.1154698,78.6077211 50.9047814,78.491076 50.6822857,78.4010526 L50.6822857,79.9294737 L49.9154286,79.8947368 L47.9982857,80.6589474 C47.9982857,80.8673684 48.6257143,81.1105263 48.6257143,81.1105263 L50.508,80.3463158 L51.0308571,80.5547368 Z" id="Shape" fill="#D50032"></path>
            <path d="M53.2965714,79.4431579 C53.0760375,79.331659 52.8416006,79.2498892 52.5994286,79.2 L52.4251429,79.2 L52.5994286,80.7284211 L52.0765714,80.7284211 C52.0765714,80.7284211 50.3337143,81.7010526 50.3337143,81.7010526 C50.5213308,81.8359128 50.7349714,81.9305364 50.9611429,81.9789474 C50.9611429,81.9789474 52.6342857,81.0410526 52.6691429,81.0410526 L53.2617143,81.0410526 C53.3266658,80.5109044 53.3383428,79.9756182 53.2965714,79.4431579 Z" id="Shape" fill="#D50032"></path>
            <path d="M53.192,82.5694737 C53.393366,82.6955938 53.6189435,82.7784145 53.8542857,82.8126316 L54.2725714,82.5694737 C54.2725714,82.2568421 54.2725714,81.9442105 54.2725714,81.5968421 L52.9828571,82.4652632 C52.9828571,82.4652632 53.1571429,82.5347368 53.192,82.5694737 Z" id="Shape" fill="#D50032"></path>
            <path d="M68.5291429,81.2842105 L69.1217143,81.2842105 C68.681488,80.8300901 68.2159917,80.400992 67.7274286,79.9989474 L67.3788571,79.9989474 C67.359165,80.2533063 67.359165,80.508799 67.3788571,80.7631579 L68.1457143,81.4231579 L67.6577143,81.4231579 C67.6361353,81.5612732 67.6361353,81.7018847 67.6577143,81.84 C67.6577143,82.2568421 67.6577143,82.6389474 67.832,83.0210526 L68.2502857,83.0210526 C68.406823,82.4540377 68.500337,81.871592 68.5291429,81.2842105 Z" id="Shape" fill="#D50032"></path>
            <path d="M71.5965714,80.1031579 C71.1140998,79.684253 70.6014906,79.301123 70.0628571,78.9568421 C69.8210947,78.9901342 69.5859421,79.0604365 69.3657143,79.1652632 L69.1565714,79.1652632 L70.8297143,80.2768421 L70.4462857,80.2768421 C70.4462857,80.2768421 70.1325714,81.84 70.1325714,81.84 C70.1325714,81.84 70.8994286,81.84 70.8994286,81.84 C71.0309578,81.3363924 71.1356754,80.8262065 71.2131429,80.3115789 C71.3822109,80.2733985 71.546055,80.2150847 71.7011429,80.1378947 L71.5965714,80.1031579 Z" id="Shape" fill="#D50032"></path>
            <path d="M73.444,79.2347368 C72.9269516,78.8337183 72.3791816,78.4736701 71.8057143,78.1578947 C71.5899915,78.2209552 71.3800821,78.3023049 71.1782857,78.4010526 L70.9691429,78.4010526 L72.712,79.4084211 L72.3634286,79.5821053 C72.3284584,80.090983 72.3284584,80.6016486 72.3634286,81.1105263 C72.3634286,81.1105263 73.0605714,80.9368421 73.0605714,80.9368421 C73.0981834,80.4396528 73.0981834,79.9403472 73.0605714,79.4431579 L73.5137143,79.2694737 C73.5137143,79.2694737 73.4788571,79.2694737 73.444,79.2347368 Z" id="Shape" fill="#D50032"></path>
            <path d="M75.2565714,78.3663158 C74.7013546,77.9881348 74.1188109,77.6514256 73.5137143,77.3589474 C73.3178512,77.4302373 73.1307473,77.5234664 72.956,77.6368421 L72.7468571,77.6368421 L74.5594286,78.54 L74.2108571,78.7484211 C74.1725475,79.2571795 74.1725475,79.7680836 74.2108571,80.2768421 C74.3851429,80.2768421 74.908,80.0684211 74.908,80.0684211 C74.9368224,79.5709406 74.9368224,79.0722173 74.908,78.5747368 L75.2565714,78.3663158 Z" id="Shape" fill="#D50032"></path>
            <path d="M74.4897143,76.4210526 L76.3022857,77.1157895 L76.0234286,77.3936842 C76.1498163,77.8913138 76.312927,78.378957 76.5114286,78.8526316 C76.6857143,78.8526316 77.104,78.5747368 77.104,78.5747368 C77.0017932,78.0859184 76.8499644,77.6087262 76.6508571,77.1505263 L76.9994286,76.8726316 C76.9994286,76.8726316 76.9994286,76.8726316 76.9994286,76.8726316 C76.4282408,76.5613841 75.833924,76.2942839 75.2217143,76.0736842 C75.2217143,76.0736842 74.4897143,76.4210526 74.4897143,76.4210526 Z" id="Shape" fill="#D50032"></path>
            <path d="M77.8708571,77.88 C78.08,77.88 78.4634286,77.6021053 78.4634286,77.6021053 C78.4634286,77.6021053 78.4634286,77.3936842 78.4634286,77.1852632 L78.08,76.8031579 C77.9727271,76.6788102 77.8562069,76.5626922 77.7314286,76.4557895 C77.7314286,76.4557895 77.8708571,77.88 77.8708571,77.88 Z" id="Shape" fill="#D50032"></path>
            <path d="M75.884,75.4484211 L77.104,75.9347368 L76.7554286,75.6568421 L76.6857143,75.4831579 C76.6857143,75.4831579 76.6857143,75.4831579 76.6857143,75.3094737 L76.5114286,75.3094737 L76.3022857,75.3094737 L75.884,75.4484211 Z" id="Shape" fill="#D50032"></path>
            <path d="M38.9354286,77.8105263 L39.9462857,80.0684211 C40.2948571,79.5126316 40.7131429,78.9915789 41.0965714,78.4357895 C37.6108571,71.0021053 34.3691429,63.5336842 34.4737143,63.4989474 L48.4165714,72.1484211 C49.0091429,71.8010526 49.5668571,71.4884211 50.1594286,71.2105263 L32.0685714,60.0947368 C33.9422812,66.1516239 36.2367787,72.0711929 38.9354286,77.8105263 Z" id="Shape" fill="#0C2C56"></path>
            <path d="M87.352,124.045263 L73.4091429,115.361053 C72.8514286,115.673684 72.2588571,115.986316 71.6314286,116.264211 L90.6285714,128.109474 C90.6285714,128.109474 83.204,110.115789 82.5765714,108.726316 L81.9491429,107.336842 C81.6054618,107.907815 81.2210427,108.453431 80.7988571,108.969474 C84.1451429,116.611579 87.4914286,124.010526 87.352,124.045263 Z" id="Shape" fill="#0C2C56"></path>
            <path d="M44.3382857,75.0315789 C45.56634,73.9294112 46.9103353,72.9627451 48.3468571,72.1484211 L34.404,63.4989474 L44.3382857,75.0315789 Z" id="Shape" fill="#C4CED4"></path>
            <path d="M77.3828571,74.9621053 C78.6558795,76.0037016 79.8233679,77.1671607 80.8685714,78.4357895 C84.3542857,71.1063158 87.84,63.6378947 87.84,63.36 L77.3828571,74.9621053 Z" id="Shape" fill="#C4CED4"></path>
            <path d="M44.6868571,112.721053 C43.4243304,111.667973 42.2578692,110.505538 41.2011429,109.247368 C37.7154286,116.715789 34.5085714,124.114737 34.648,124.149474 L44.6868571,112.721053 Z" id="Shape" fill="#C4CED4"></path>
            <path d="M77.4177143,112.443158 C76.1601554,113.534305 74.8069245,114.510849 73.3742857,115.361053 L87.3171429,124.045263 L77.4177143,112.443158 Z" id="Shape" fill="#C4CED4"></path>
            <path d="M68.1108571,86.5642105 L66.4377143,88.2315789 C64.416,90.2810526 61.2788571,93.5115789 61,93.8589474 C60.7211429,94.2063158 60.1285714,94.7968421 59.2571429,95.7 C60.1285714,94.7968421 60.8257143,94.1021053 61,93.8589474 L66.4377143,88.2315789 L68.1108571,86.5642105 Z" id="Shape" fill="#FFFFFF"></path>
            <path d="M68.1108571,86.5642105 L68.2851429,86.5642105 C68.2851429,86.2863158 68.2851429,85.8694737 68.2851429,85.3484211 C68.2851429,84.8273684 68.076,83.82 67.9365714,82.8126316 C67.9365714,82.4305263 67.9365714,82.0484211 67.7622857,81.6315789 C67.588,81.2147368 67.7622857,80.8673684 67.7622857,80.4505263 C67.7425935,80.1961674 67.7425935,79.9406747 67.7622857,79.6863158 C67.7622857,78.6442105 67.4485714,77.5326316 67.2742857,76.2126316 C66.9605714,74.3021053 66.6468571,72.1831579 66.2982857,70.0294737 C66.2814052,69.7054814 66.2814052,69.3808344 66.2982857,69.0568421 C64.2765714,56.2389474 61.7668571,41.2673684 61.5925714,41.2673684 L61.5925714,93.7894737 C61.8714286,93.4421053 65.0782857,90.3157895 67.0302857,88.1621053 L68.1108571,86.5642105 Z" id="Shape" fill="#C4CED4"></path>
            <path d="M37.2274286,89.0652632 C37.3336949,88.4674457 37.4733403,87.8760007 37.6457143,87.2936842 C37.7882051,86.7398649 37.9627835,86.1947405 38.1685714,85.6610526 L38.796,84.0978947 C39.04,83.6115789 39.2491429,83.1252632 39.4931429,82.6736842 C39.4816998,82.5930327 39.4816998,82.5111778 39.4931429,82.4305263 C39.7371429,81.9789474 39.9811429,81.5273684 40.26,81.1105263 C40.6029754,80.5280718 40.9873883,79.9708557 41.4102857,79.4431579 C41.6230534,79.1275629 41.8559123,78.8258912 42.1074286,78.54 C42.3440769,78.2234468 42.600187,77.9218158 42.8742857,77.6368421 L43.1531429,77.3242105 L43.4668571,77.0115789 L43.7805714,76.6989474 L44.7565714,75.7957895 L45.1051429,75.4831579 L45.9765714,74.7884211 L46.1508571,74.7884211 L46.9177143,74.2326316 L47.7891429,73.6768421 L48.7302857,73.1210526 C49.288,72.8084211 49.8805714,72.5305263 50.508,72.2526316 C51.6408042,71.7592502 52.805278,71.3414864 53.9937143,71.0021053 L55.7714286,70.5852632 C55.4228571,72.8084211 55.1091429,74.9273684 54.7954286,76.8726316 C54.4817143,78.8178947 54.2377143,80.5547368 53.9937143,82.0484211 C53.9937143,82.3957895 53.9937143,82.7084211 53.9937143,83.0210526 C53.7845714,84.5494737 53.6102857,85.7652632 53.5057143,86.4947368 C53.490818,86.6797026 53.490818,86.8655605 53.5057143,87.0505263 C55.3182857,88.7178947 60.0937143,93.6157895 60.6514286,94.3105263 L60.6514286,41.4410526 C60.6514286,41.4410526 58.0371429,56.4126316 55.9805714,69.2305263 L54.2028571,69.6126316 C52.6675775,70.0163415 51.1737706,70.5629557 49.7411429,71.2452632 C49.1485714,71.5231579 48.5908571,71.8357895 47.9982857,72.1831579 C46.5617638,72.9974819 45.2177686,73.9641481 43.9897143,75.0663158 L34.4737143,63.4989474 C34.4737143,63.4989474 37.7502857,71.0021053 41.0965714,78.4357895 C40.7131429,78.9915789 40.2948571,79.5126316 39.9462857,80.0684211 C38.447299,82.3351718 37.3397935,84.8360712 36.6697143,87.4673684 C36.5015407,88.0484966 36.3734325,88.6404031 36.2862857,89.2389474 L37.2274286,89.0652632 Z" id="Shape" fill="#005C5C"></path>
            <path d="M61,93.7894737 C60.8257143,94.0326316 60.1285714,94.7273684 59.2571429,95.6305263 L58.8737143,96.0473684 L57.7582857,97.1936842 L55.6668571,99.3126316 L53.8542857,101.049474 C53.8542857,101.327368 53.8542857,101.709474 53.8542857,102.230526 C53.8542857,102.890526 54.0634286,103.724211 54.2028571,104.731579 C54.2028571,105.078947 54.2028571,105.426316 54.2028571,105.773684 C54.2028571,106.121053 54.2028571,106.676842 54.412,107.163158 L54.412,107.857895 C54.5862857,108.865263 54.7605714,110.011579 54.9348571,111.331579 C55.2137143,113.242105 55.5274286,115.256842 55.876,117.410526 C55.876,117.723158 55.876,118.035789 55.876,118.348421 C57.9325714,131.201053 60.4422857,146.381053 60.5817143,146.346316 L61,93.7894737 Z" id="Shape" fill="#C4CED4"></path>
            <path d="M73.3742857,115.361053 C74.8069245,114.510849 76.1601554,113.534305 77.4177143,112.443158 L87.352,124.045263 C87.352,124.045263 84.1451429,116.611579 80.6942857,108.969474 C81.1164713,108.453431 81.5008903,107.907815 81.8445714,107.336842 C83.2745316,105.204105 84.3568657,102.859326 85.0514286,100.389474 L85.4697143,98.6178947 L84.4937143,98.6178947 C84.4937143,99.2084211 84.2148571,99.7989474 84.0405714,100.389474 C83.8662857,100.98 83.7268571,101.396842 83.5525714,101.917895 C83.3782857,102.369474 83.1691429,102.855789 82.96,103.307368 C82.5180321,104.292298 82.0054686,105.244233 81.4262857,106.155789 L80.1714286,108.031579 L79.3348571,109.073684 L78.3937143,110.081053 L78.08,110.428421 L77.7662857,110.741053 L77.5222857,110.984211 L77.0691429,111.401053 L76.8251429,111.609474 L76.616,111.783158 L76.4417143,111.783158 L75.5702857,112.477895 L75.396,112.477895 C75.143006,112.682772 74.8750239,112.868551 74.5942857,113.033684 L73.688,113.589474 L72.6771429,114.18 C72.1194286,114.492632 71.492,114.770526 70.8994286,115.048421 C69.9285378,115.490843 68.9266597,115.862348 67.9017143,116.16 L66.124,116.611579 C66.4377143,114.527368 66.7514286,112.512632 67.0651429,110.636842 C67.3788571,108.761053 67.6577143,106.885263 67.8668571,105.356842 C67.8668571,105.009474 67.8668571,104.696842 67.8668571,104.384211 L68.3548571,101.118947 C68.3548571,100.841053 68.3548571,100.632632 68.3548571,100.458947 L68.1457143,100.458947 C66.368,98.8263158 61.8714286,94.2063158 61.1742857,93.2684211 L61.1742857,146.242105 C61.1742857,146.242105 63.8582857,131.027368 65.9148571,118.209474 L67.6925714,117.792632 C69.0977199,117.413685 70.4633465,116.901889 71.7708571,116.264211 C72.224,115.986316 72.8165714,115.673684 73.3742857,115.361053 Z" id="Shape" fill="#005C5C"></path>
            <path d="M61,93.7894737 C60.4422857,93.0947368 55.6668571,88.1968421 53.8542857,86.5294737 C52.8085714,86.5294737 49.6017143,87.0852632 45.4188571,87.7452632 L37.332,88.9957895 L36.3908571,89.1694737 C23.668,91.2189474 9.06285714,93.7894737 9.13232282,93.7894737 L61,93.7894737 Z" id="Shape" fill="#C4CED4"></path>
            <path d="M101.399429,97.7147368 L106.349143,96.8463158 C116.597143,95.04 122,93.7894737 122,93.7894737 L102.270857,90.3157895 L95.2994286,89.1347368 L95.0554286,89.1347368 C91.4234751,85.0778646 87.2200687,81.5676136 82.5765714,78.7136842 C82.5577912,78.621998 82.5577912,78.5274757 82.5765714,78.4357895 C82.9948571,77.4631579 83.3085714,76.8378947 83.3085714,76.8378947 C83.7268571,75.8652632 84.1451429,74.9621053 84.5285714,74.1284211 C88.2582857,65.9652632 89.1297143,63.4642105 89.1297143,63.4642105 L90.5588571,60.3031579 L75.1868571,68.9526316 L71.7011429,71.2452632 L73.4091429,72.1831579 C80.3805714,67.7715789 87.5262857,63.2905263 87.6657143,63.4989474 C87.8051429,63.7073684 84.18,71.2452632 80.6942857,78.5747368 C81.108671,79.0845459 81.4927565,79.61809 81.8445714,80.1726316 C82.9222478,81.8112064 83.7998801,83.5720744 84.4588571,85.4178947 C85.4697143,86.1821053 86.4457143,86.9810526 87.4217143,87.8147368 L85.0862857,87.4326316 C85.0862857,88.0231579 85.3651429,88.6136842 85.4697143,89.2042105 C96.9028571,91.0105263 110.183429,93.1989474 113.006857,93.7547368 L113.529714,93.7547368 C113.529714,93.7547368 98.2971429,96.3947368 85.4348571,98.4442105 L85.0165714,100.215789 L96.7285714,98.34 C101.922653,106.953274 104.49021,116.886324 104.118286,126.928421 C104.118286,160.171579 80.1365714,182.507368 57.4445714,182.507368 C42.456,182.507368 34.4388571,173.510526 30.2908571,173.510526 C25.8986382,175.848374 21.3160521,177.812201 16.592,179.381053 L16.592,133.563158 C21.6114286,136.689474 28.2691429,169.515789 58.4205714,169.515789 C68.8777143,169.515789 78.4285714,160.518947 78.4285714,142.976842 C78.5647586,134.065162 74.4034384,125.629138 67.2394286,120.293684 C67.2394286,119.425263 67.5182857,118.556842 67.6228571,117.792632 L65.8451429,118.209474 C63.7885714,131.027368 61.244,146.276842 61.1045714,146.242105 C60.9651429,146.207368 58.4554286,131.096842 56.3988571,118.244211 L54.6211429,117.862105 C54.6211429,118.904211 54.9697143,120.015789 55.1788571,121.335789 L57.2354286,134.118947 C59.3965714,147.249474 61.1045714,155.377895 61.1045714,155.377895 C61.1045714,155.377895 62.8125714,147.249474 65.0085714,134.153684 C65.0085714,134.153684 65.0085714,133.215789 65.392,131.722105 C65.7754286,130.228421 66.0194286,127.796842 66.4377143,125.4 L66.4377143,124.566316 C71.5972594,129.311209 74.5930666,135.946976 74.7337143,142.942105 C74.7337143,156.315789 67.7622857,165.729474 57.7234286,165.729474 C40.2948571,165.729474 31.1274286,152.043158 23.0405714,135.925263 C21.2515309,131.577712 17.4795419,128.348356 12.8971429,127.241053 L12.8971429,184.556842 L31.1622857,177.991579 C35.2405714,179.276842 41.8285714,185.876842 58.7342857,185.876842 C85.0862857,185.876842 107.848,161.178947 107.848,126.233684 C108.064854,116.319984 105.737193,106.515373 101.085714,97.7494737 L101.399429,97.7147368 Z" id="Shape" fill="#0C2C56"></path>
            <path d="M29.8377143,99.1042105 L30.6045714,99.1042105 C33.181731,101.250276 35.8819052,103.245221 38.6914286,105.078947 C37.8887144,103.538888 37.2463179,101.92098 36.7742857,100.250526 L36.5302857,100.042105 L36.7394286,100.042105 C36.5593735,99.4618434 36.4196146,98.869918 36.3211429,98.2705263 C23.7377143,96.2557895 9.13257143,93.7894737 9.13257143,93.6852632 C9.13257143,93.5810526 23.668,91.0452632 36.2862857,89.0652632 C36.3734325,88.4667189 36.5015407,87.8748124 36.6697143,87.2936842 L25.5851429,89.0652632 C18.8313815,79.4661512 15.4380982,67.9175328 15.9297143,56.2042105 C15.9297143,27.9978947 37.6457143,8.85789474 56.8171429,8.85789474 C62.6552734,8.90146059 68.3519895,10.6528926 73.2,13.8947368 C77.2085714,16.6389474 79.8577143,19.2094737 81.8794286,19.2094737 C81.8794286,19.2094737 89.6525714,15.7357895 93.208,14.3463158 L93.208,55.2315789 C83.6571429,48.6315789 81.1474286,21.78 59.5011429,21.78 C50.4731429,21.78 42.3165714,29.8389474 42.3165714,43.2473684 C42.2184946,52.7548394 47.0048081,61.6523411 55.0045714,66.8336842 C55.0045714,67.8063158 54.6908571,68.7094737 54.5514286,69.5778947 L56.3291429,69.1957895 C58.3857143,56.4126316 60.8605714,41.4063158 61,41.4063158 C61.1394286,41.4063158 63.684,56.3778947 65.7057143,69.1957895 C66.3056021,69.301689 66.8990955,69.4408525 67.4834286,69.6126316 C67.2045714,67.8757895 66.856,65.8263158 66.5422857,63.8115789 C65.7405714,58.6705263 64.904,53.6336842 64.904,53.6336842 C62.7428571,40.4336842 60.8954286,33.5905263 60.8954286,33.5905263 C60.8954286,33.5905263 59.292,40.5378947 57.1308571,53.6336842 C57.1308571,53.6336842 57.1308571,54.5368421 56.7474286,55.9610526 C56.364,57.3852632 56.1897143,59.4347368 55.8411429,61.6231579 C55.8411429,61.7968421 55.8411429,61.9357895 55.8411429,62.0747368 C50.0375807,57.4057639 46.5013716,50.4966937 46.116,43.0736842 C46.116,32.8957895 50.996,25.7052632 61.244,25.7052632 C74.5594286,25.7052632 79.5091429,40.92 87.4565714,54.4326316 C89.6746953,57.7895635 93.0667064,60.2040666 96.9725714,61.2063158 L96.9725714,9.10105263 C96.9725714,9.10105263 84.7725714,13.8947368 81.4611429,15.0757895 C75.8142857,10.6294737 65.392,4.89789474 56.8171429,4.89789474 C35.9028571,4.89789474 12.4091429,26.8168421 12.4091429,56.1347368 C12.4091429,71.3494737 16.0691429,81.84 21.8205714,89.8294737 L21.1234286,89.8294737 L16.0691429,90.6631579 C5.82114286,92.5736842 0,93.7894737 0,93.7894737 C0,93.7894737 8.052,95.5957895 21.6114286,97.8536842 L22.1691429,97.8536842 L29.8377143,99.1042105 Z" id="Shape" fill="#0C2C56"></path>
            <path d="M48.556,115.430526 C41.5845714,119.842105 34.6131429,124.184211 34.6131429,124.08 C34.6131429,123.975789 37.82,116.646316 41.1662857,109.177895 L40.0857143,107.684211 C39.5628571,108.795789 39.2142857,109.594737 39.2142857,109.594737 C39.2142857,109.594737 38.8308571,110.463158 38.6217143,110.914737 C33.7068571,121.787368 30.5348571,128.283158 30.5348571,128.283158 C36.4460761,125.247488 42.1620678,121.848292 47.6497143,118.105263 L49.2182857,117.097895 L50.3337143,116.403158 L48.556,115.430526 Z" id="Shape" fill="#0C2C56"></path>
            <path d="M56.2942857,118.105263 C56.2942857,117.792632 56.2942857,117.48 56.2942857,117.167368 L54.5165714,116.715789 C53.452622,116.433904 52.4147593,116.062028 51.4142857,115.604211 L49.6365714,114.735789 L48.7302857,114.214737 L47.8588571,113.658947 L47.092,113.137895 L46.2554286,112.477895 L46.0462857,112.477895 L45.3142857,112.026316 L45.0702857,111.817895 L44.5125714,111.331579 L44.0942857,110.914737 L43.7457143,110.567368 C43.4129532,110.237564 43.0987587,109.889664 42.8045714,109.525263 L41.968,108.483158 C41.5530702,107.949617 41.1690179,107.392923 40.8177143,106.815789 C39.584668,104.899915 38.6338375,102.817647 37.9942857,100.632632 C37.82,100.042105 37.6805714,99.4515789 37.5411429,98.8610526 L45.6977143,100.146316 C49.8457143,100.771579 52.9828571,101.257895 54.0285714,101.327368 L55.8411429,99.5905263 L57.9325714,97.4715789 L59.048,96.3252632 L59.4314286,95.9084211 C60.3028571,95.0052632 61,94.3105263 61.1742857,94.0673684 L9.13257143,94.0673684 C9.13257143,94.0673684 23.7377143,96.6378947 36.3211429,98.6526316 C36.4196146,99.2520232 36.5593735,99.8439487 36.7394286,100.424211 C37.2114608,102.094664 37.8538572,103.712572 38.6565714,105.252632 C35.8470481,103.418905 33.1468738,101.423961 30.5697143,99.2778947 L29.8028571,99.2778947 L22.1342857,98.0621053 L21.5765714,98.0621053 C26.5587257,103.23012 32.2930504,107.621412 38.5868571,111.088421 C38.796,110.636842 39.0051429,110.22 39.1794286,109.768421 C39.3537143,109.316842 39.528,108.969474 40.0508571,107.857895 L41.2011429,109.455789 C42.2578692,110.713959 43.4243304,111.876394 44.6868571,112.929474 L34.8571429,124.08 C34.8571429,124.08 41.8285714,119.842105 48.8,115.430526 L50.5777143,116.333684 L49.4622857,117.028421 C51.5885714,118.417895 53.5057143,119.807368 55.3182857,121.196842 C55.1091429,120.015789 54.9348571,118.904211 54.7605714,117.723158 L56.2942857,118.105263 Z" id="Shape" fill="#005C5C"></path>
            <path d="M61,93.7894737 C61.8017143,94.7273684 66.2982857,99.3473684 67.9714286,100.98 L68.1805714,100.98 C69.2611429,100.98 72.3634286,100.424211 76.4417143,99.7989474 L84.3194286,98.5831579 L85.2954286,98.5831579 C98.1577143,96.5336842 113.425143,93.9978947 113.390286,93.8936842 L61,93.7894737 Z" id="Shape" fill="#C4CED4"></path>
            <path d="M65.7057143,69.2305263 C65.6888338,69.5545186 65.6888338,69.8791656 65.7057143,70.2031579 C66.3061736,70.3209662 66.8996481,70.4717219 67.4834286,70.6547368 C68.5677249,70.9582324 69.6279616,71.3413868 70.6554286,71.8010526 C71.2828571,72.0789474 71.8754286,72.3915789 72.468,72.7042105 C73.0925134,73.0534264 73.69759,73.4360921 74.2805714,73.8505263 L75.0474286,74.4410526 L75.9188571,75.1010526 L76.0931429,75.1010526 C76.0931429,75.1010526 76.0931429,75.1010526 76.0931429,75.2747368 L76.2674286,75.4484211 L76.616,75.7263158 L77.0342857,76.1084211 C77.1590641,76.2153237 77.2755842,76.3314417 77.3828571,76.4557895 L77.7662857,76.8378947 L78.7074286,77.88 L78.7074286,78.0536842 C79.0167893,78.3970388 79.3076734,78.7564902 79.5788571,79.1305263 C79.9622857,79.6863158 80.3457143,80.2421053 80.6942857,80.7978947 C81.8838365,82.6817694 82.7882243,84.7301025 83.3782857,86.8768421 C83.4757512,87.1615718 83.557211,87.4514954 83.6222857,87.7452632 L83.8314286,88.6831579 C80.9382857,88.1968421 78.1845714,87.78 75.7794286,87.4326316 C71.7011429,86.8073684 68.5988571,86.3557895 67.5531429,86.2515789 L67.3788571,86.2515789 L65.7057143,87.9189474 L61,93.7894737 L113.564571,93.7894737 L113.041714,93.7894737 C110.218286,93.2336842 96.9377143,91.0452632 85.5045714,89.2389474 C85.5045714,88.6484211 85.2605714,88.0578947 85.1211429,87.4673684 C84.9488538,86.7849374 84.7394009,86.1123627 84.4937143,85.4526316 C83.8347372,83.6068113 82.9571049,81.8459432 81.8794286,80.2073684 C81.5276136,79.6528268 81.1435282,79.1192828 80.7291429,78.6094737 C79.6839393,77.3408449 78.5164509,76.1773858 77.2434286,75.1357895 L87.7005714,63.6378947 C87.7005714,63.4294737 80.3457143,67.9105263 73.444,72.3221053 L71.736,71.3842105 C70.3607653,70.7553313 68.9390528,70.232739 67.4834286,69.8210526 C66.9026481,69.5905718 66.3091061,69.3934073 65.7057143,69.2305263 Z" id="Shape" fill="#005C5C"></path>
        </g>
    </g>
</svg>